# xmcd CD database file
# Copyright (C) 1995 Ti Kan
#
# Track frame offsets:
#	150
#	14519
#	27205
#	40679
#	50759
#	63363
#	74715
#	83828
#	96935
#	108070
#	123248
#	133401
#	145204
#	158145
#	170089
#	181259
#	192578
#	201781
#	213993
#	237104
#	249916
#	263018
#	275234
#	292620
#	304005
#	315623
#	328848
#
# Disc length: 4578 seconds
#
# Revision: 1
# Processed by: cddbd v1.4PL0 Copyright (c) Steve Scherf et al.
# Submitted via: NotifyCDPlayer(CDDB) 1.60beta5_freedb
#
DISCID=9011e01b
DTITLE=Waylon Jennings - The Journey: Six Strings Away Vol. 1
DYEAR=1900
DGENRE=
TTITLE0=Folsom Prison Blues
TTITLE1=Today I Started Loving You Again
TTITLE2=If You Were Mine To Lose
TTITLE3=Six Strings Away
TTITLE4=Cedartown Georgia
TTITLE5=I Lost Me
TTITLE6=Brown Eyed Handsome Man
TTITLE7=Alone
TTITLE8=Something's Wrong In California
TTITLE9=The Days Of Sand And Shovels
TTITLE10=Just To Satisfy You
TTITLE11=For The Kids
TTITLE12=Farewell Party
TTITLE13=Sing The Blues To Daddy (& Bobby Bare)
TTITLE14=Change My Mind
TTITLE15=Lonely Weekends
TTITLE16=A World Of Our Own
TTITLE17=Come Stay With Me
TTITLE18=MacArthur Park
TTITLE19=Long Way Back Home
TTITLE20=These New Changing Times
TTITLE21=Cindy, Oh Cindy
TTITLE22=Mary Ann Regrets
TTITLE23=But You Know I Love You
TTITLE24=Drivin' Nails In The Wall
TTITLE25=Let Me Tell You My Mind
TTITLE26=Games People Play
EXTD=
EXTT0=
EXTT1=
EXTT2=
EXTT3=
EXTT4=
EXTT5=
EXTT6=
EXTT7=
EXTT8=
EXTT9=
EXTT10=
EXTT11=
EXTT12=
EXTT13=
EXTT14=
EXTT15=
EXTT16=
EXTT17=
EXTT18=
EXTT19=
EXTT20=
EXTT21=
EXTT22=
EXTT23=
EXTT24=
EXTT25=
EXTT26=
PLAYORDER=
